<svg width="25" height="25" viewBox="0 0 25 25" fill="none" xmlns="http://www.w3.org/2000/svg">
<path d="M18.8942 21.9031H5.39416C4.99633 21.9031 4.6148 21.745 4.3335 21.4637C4.05219 21.1824 3.89416 20.8009 3.89416 20.4031H20.3942C20.3942 20.8009 20.2361 21.1824 19.9548 21.4637C19.6735 21.745 19.292 21.9031 18.8942 21.9031ZM17.0192 8.40307V11.3401C17.0211 12.276 16.7888 13.1976 16.3434 14.0208C15.898 14.844 15.2537 15.5427 14.4692 16.0531L14.2937 16.1671L15.6062 17.9986L15.8552 17.8351C16.9089 17.1111 17.7704 16.1413 18.3652 15.0097C18.96 13.878 19.2703 12.6185 19.2692 11.3401V8.40307H17.0192ZM20.4692 5.40307H13.0772L11.5937 6.88657H20.4752C20.7309 6.87941 20.9855 6.9236 21.2239 7.01653C21.4623 7.10946 21.6796 7.24924 21.8631 7.42761C22.0465 7.60598 22.1923 7.81932 22.2919 8.05501C22.3914 8.2907 22.4427 8.54396 22.4427 8.79982C22.4427 9.05568 22.3914 9.30895 22.2919 9.54464C22.1923 9.78033 22.0465 9.99367 21.8631 10.172C21.6796 10.3504 21.4623 10.4902 21.2239 10.5831C20.9855 10.676 20.7309 10.7202 20.4752 10.7131H20.3942V12.2131H20.4752C21.3782 12.2131 22.2443 11.8543 22.8829 11.2158C23.5214 10.5772 23.8802 9.71114 23.8802 8.80807C23.8802 7.90501 23.5214 7.03894 22.8829 6.40038C22.2443 5.76181 21.3782 5.40307 20.4752 5.40307H20.4692ZM11.4257 17.3866C9.83169 17.3858 8.30277 16.7544 7.17271 15.6303C6.04266 14.5061 5.40327 12.9805 5.39416 11.3866V11.1841H4.99216L3.89416 10.0861V11.3866C3.90367 13.3782 4.70122 15.2851 6.1125 16.6905C7.52377 18.0959 9.43399 18.8854 11.4257 18.8866C12.3188 18.8769 13.2025 18.703 14.0327 18.3736L13.1327 17.1166C12.5802 17.2907 12.0049 17.3817 11.4257 17.3866ZM13.1132 1.12207L6.14416 8.09257L2.17516 4.12207L1.11316 5.18407L5.61316 9.68407H6.67516L14.1752 2.18407L13.1132 1.12207Z" fill="white"/>
</svg>
