<?xml version="1.0" encoding="utf-8"?>
<!-- Generator: Adobe Illustrator 21.1.0, SVG Export Plug-In . SVG Version: 6.00 Build 0)  -->
<svg version="1.1" id="Layer_1" xmlns="http://www.w3.org/2000/svg" xmlns:xlink="http://www.w3.org/1999/xlink" x="0px" y="0px"
	 viewBox="0 0 50 50" style="enable-background:new 0 0 50 50;" xml:space="preserve">
<style type="text/css">
	.st0{fill:#FFFFFF;}
	.st1{fill:#017ACC;}
	.st2{opacity:0.2;fill:#FFFFFF;enable-background:new    ;}
	.st3{opacity:0.2;fill:#1E1E1E;enable-background:new    ;}
	.st4{fill:#21252B;}
	.st5{fill:#EA2D2F;}
	.st6{fill:#5F5F5F;}
	.st7{fill:#0A6EB6;}
	.st8{fill:none;}
</style>
<g>
	<g>
		<path class="st7" d="M13.3,46.8h-1.8c-2.5,0-4-0.7-5-1.8C5.4,43.5,5,41.4,5,37.8v-2.5c0-3.2-0.4-5-1.1-6.5C3.2,27.7,1.8,27,0,27
			v-4c1.8,0,3.2-0.7,4-1.8C4.7,20.1,5,18,5,14.7v-2.5C5,8.6,5.4,6.5,6.5,5c1.1-1.4,2.9-1.8,5-1.8h1.8v3.2h-0.7
			c-1.4,0-2.5,0.4-3.2,1.1s-0.7,2.2-0.7,4.7v1.4c0,3.2-0.4,5.8-1.1,7.6c-0.7,1.4-2.2,2.9-4,3.6c1.8,0.7,3.2,2.2,4,3.6
			c0.7,1.4,1.1,4,1.1,7.6v1.4c0,2.5,0.4,4,0.7,4.7c0.4,0.7,1.8,1.1,3.2,1.1h0.7V46.8z"/>
		<path class="st7" d="M50,26.6c-1.8,0-3.2,0.7-4,1.8c-0.7,1.1-1.1,3.2-1.1,6.5v2.5c0,3.6-0.4,5.8-1.4,7.2c-1.1,1.4-2.9,1.8-5,1.8
			h-1.8v-3.2h0.7c1.4,0,2.5-0.4,3.2-1.1c0.7-0.7,0.7-2.2,0.7-4.7V36c0-3.2,0.4-5.8,1.1-7.6c0.7-1.8,2.2-2.9,4-3.6
			c-1.8-0.7-3.2-1.8-4-3.6c-0.7-1.4-1.1-4-1.1-7.6v-1.4c0-2.5-0.4-4-0.7-4.7s-1.8-1.1-3.2-1.1h-0.7V3.2h1.8c2.5,0,4,0.7,5,1.8
			c1.1,1.4,1.4,3.6,1.4,7.2v2.5c0,2.9,0.4,4.7,1.1,6.1c0.7,1.4,2.2,2.2,4,2.2V26.6z"/>
	</g>
	<g>
		<path class="st6" d="M30.9,28.8l5,1.4c-0.7,2.9-2.2,5-4,6.1c-1.8,1.4-4,2.2-6.8,2.2c-3.6,0-6.1-1.1-8.3-3.6
			c-2.2-2.5-3.2-5.4-3.2-9.7s1.1-7.6,3.2-10.1c2.2-2.5,5-3.6,8.6-3.6c3.2,0,5.8,1.1,7.6,2.9c1.1,1.1,2.2,2.5,2.5,4.7l-5,1.1
			c-0.4-1.4-1.1-2.5-1.8-3.2c-1.1-0.7-2.2-1.1-3.6-1.1c-1.8,0-3.6,0.7-4.7,2.2c-1.1,1.4-1.8,3.6-1.8,6.8s0.7,5.4,1.8,6.8
			s2.5,2.2,4.7,2.2c1.4,0,2.5-0.4,3.6-1.4S30.6,30.6,30.9,28.8z"/>
	</g>
</g>
<rect x="0" y="0" class="st8" width="50" height="50"/>
</svg>
