<?xml version="1.0" encoding="utf-8"?>
<!-- Generator: Adobe Illustrator 21.1.0, SVG Export Plug-In . SVG Version: 6.00 Build 0)  -->
<svg version="1.1" id="Layer_1" xmlns="http://www.w3.org/2000/svg" xmlns:xlink="http://www.w3.org/1999/xlink" x="0px" y="0px"
	 viewBox="0 0 50 50" style="enable-background:new 0 0 50 50;" xml:space="preserve">
<style type="text/css">
	.st0{fill:#FFFFFF;}
	.st1{fill:#017ACC;}
	.st2{opacity:0.2;fill:#FFFFFF;enable-background:new    ;}
	.st3{opacity:0.2;fill:#1E1E1E;enable-background:new    ;}
	.st4{fill:#21252B;}
	.st5{fill:#EA2D2F;}
	.st6{fill:#5F5F5F;}
	.st7{fill:#0A6EB6;}
	.st8{fill:none;}
</style>
<g>
	<path class="st7" d="M38.5,20.7L38.5,20.7L50,9.2l-5.4-5.4L22.3,25.7l-0.7,0.7l-1.8,1.4c-2.9,1.1-5.8,1.4-8.6,0.7l0,0l0.4,5.4
		c5,2.2,11.2,1.4,15.5-2.5l0,0l0.7-0.7l0,0L38.5,20.7z"/>
	<polygon class="st6" points="36.7,27.9 36.7,42.3 4,42.3 4,9.5 33.5,9.5 37.8,5.6 0,5.6 0,46.2 40.6,46.2 40.6,23.9 	"/>
</g>
<rect x="0" y="0" class="st8" width="50" height="50"/>
</svg>
